<?xml version="1.0" encoding="UTF-8"?>
<!DOCTYPE svg PUBLIC "-//W3C//DTD SVG 1.1//EN" "http://www.w3.org/Graphics/SVG/1.1/DTD/svg11.dtd">
<svg xmlns="http://www.w3.org/2000/svg" version="1.1" width="1200px" height="1200px" style="shape-rendering:geometricPrecision; text-rendering:geometricPrecision; image-rendering:optimizeQuality; fill-rule:evenodd; clip-rule:evenodd" xmlns:xlink="http://www.w3.org/1999/xlink">
<g><path style="opacity:1" fill="#393e46" d="M -0.5,-0.5 C 399.5,-0.5 799.5,-0.5 1199.5,-0.5C 1199.5,399.5 1199.5,799.5 1199.5,1199.5C 799.5,1199.5 399.5,1199.5 -0.5,1199.5C -0.5,799.5 -0.5,399.5 -0.5,-0.5 Z"/></g>
<g><path style="opacity:1" fill="#e2e3e3" d="M 427.5,306.5 C 542.404,306.168 657.237,306.501 772,307.5C 772.832,422.403 772.665,537.236 771.5,652C 656.597,652.832 541.764,652.665 427,651.5C 426.169,536.43 426.336,421.43 427.5,306.5 Z"/></g>
<g><path style="opacity:1" fill="#393e46" d="M 434.5,314.5 C 544.5,314.5 654.5,314.5 764.5,314.5C 764.5,424.5 764.5,534.5 764.5,644.5C 654.5,644.5 544.5,644.5 434.5,644.5C 434.5,534.5 434.5,424.5 434.5,314.5 Z"/></g>
<g><path style="opacity:1" fill="#e2e2e3" d="M 442.5,321.5 C 547.404,321.168 652.237,321.501 757,322.5C 757.832,427.403 757.665,532.236 756.5,637C 651.597,637.832 546.764,637.665 442,636.5C 441.169,531.43 441.336,426.43 442.5,321.5 Z"/></g>
<g><path style="opacity:1" fill="#393e46" d="M 449.5,329.5 C 549.5,329.5 649.5,329.5 749.5,329.5C 749.5,429.5 749.5,529.5 749.5,629.5C 649.5,629.5 549.5,629.5 449.5,629.5C 449.5,529.5 449.5,429.5 449.5,329.5 Z"/></g>
<g><path style="opacity:1" fill="#e8e8e8" d="M 586.5,375.5 C 587.832,385.645 588.499,396.145 588.5,407C 588.333,417.5 588.167,428 588,438.5C 579.444,443.158 570.277,444.658 560.5,443C 551.126,439.756 541.793,439.756 532.5,443C 530.007,444.566 528.007,446.566 526.5,449C 528.838,455.35 531.172,461.683 533.5,468C 531.129,468.735 528.795,469.568 526.5,470.5C 524.911,467.579 523.411,464.579 522,461.5C 514.395,439.242 506.561,417.075 498.5,395C 509.982,383.061 523.982,378.061 540.5,380C 547.972,382.99 555.638,385.49 563.5,387.5C 572.765,386.369 580.432,382.369 586.5,375.5 Z"/></g>
<g><path style="opacity:1" fill="#3d4249" d="M 529.5,386.5 C 532.5,386.5 535.5,386.5 538.5,386.5C 539.519,391.189 540.519,395.856 541.5,400.5C 535.823,400.096 530.323,400.763 525,402.5C 522.884,398.661 521.05,394.661 519.5,390.5C 519.709,389.914 520.043,389.414 520.5,389C 523.678,388.34 526.678,387.507 529.5,386.5 Z"/></g>
<g><path style="opacity:1" fill="#3d424a" d="M 530.5,420.5 C 535.675,418.915 541.009,418.248 546.5,418.5C 545.373,412.454 544.04,406.454 542.5,400.5C 546.677,401.253 550.677,402.586 554.5,404.5C 554.833,403.833 555.167,403.167 555.5,402.5C 554.341,399.215 553.841,395.882 554,392.5C 559.304,394.308 564.804,394.975 570.5,394.5C 570.5,398.833 570.5,403.167 570.5,407.5C 565.786,407.647 561.119,407.314 556.5,406.5C 557.221,411.17 558.054,415.837 559,420.5C 559.5,421 560,421.5 560.5,422C 564.421,422.203 568.255,422.703 572,423.5C 572.499,427.486 572.666,431.486 572.5,435.5C 569.531,436.329 566.531,436.495 563.5,436C 562.211,431.897 561.044,427.73 560,423.5C 556.143,421.152 551.976,419.819 547.5,419.5C 548.269,423.743 549.269,427.909 550.5,432C 545.134,432.323 539.801,432.823 534.5,433.5C 533.968,428.905 532.635,424.571 530.5,420.5 Z"/></g>
<g><path style="opacity:1" fill="#3b4048" d="M 530.5,420.5 C 526.306,422.183 522.473,424.516 519,427.5C 517.129,421.386 514.962,415.386 512.5,409.5C 515.725,406.554 519.392,404.721 523.5,404C 526.359,409.258 528.692,414.758 530.5,420.5 Z"/></g>
<g><path style="opacity:1" fill="#3a3f47" d="M 579.5,402.5 C 580.825,408.234 580.825,414.068 579.5,420C 577.238,420.642 575.071,421.475 573,422.5C 571.661,417.264 571.161,411.93 571.5,406.5C 574.754,406.206 577.421,404.873 579.5,402.5 Z"/></g>
<g><path style="opacity:1" fill="#e1e2e2" d="M 672.5,402.5 C 675.648,403.474 677.481,405.474 678,408.5C 629.833,456.667 581.667,504.833 533.5,553C 531.255,552.805 529.422,551.638 528,549.5C 527.333,548.833 527.333,548.167 528,547.5C 576.368,499.299 624.535,450.965 672.5,402.5 Z"/></g>
<g><path style="opacity:1" fill="#ededed" d="M 656.5,512.5 C 665.167,512.5 673.833,512.5 682.5,512.5C 681.833,514.833 681.167,517.167 680.5,519.5C 672.833,519.5 665.167,519.5 657.5,519.5C 657.5,526.5 657.5,533.5 657.5,540.5C 665.833,540.5 674.167,540.5 682.5,540.5C 681.833,542.833 681.167,545.167 680.5,547.5C 672.833,547.5 665.167,547.5 657.5,547.5C 657.832,556.525 657.498,565.525 656.5,574.5C 654.821,575.782 652.987,576.782 651,577.5C 650.333,556.833 650.333,536.167 651,515.5C 652.876,514.391 654.709,513.391 656.5,512.5 Z"/></g>
<g><path style="opacity:1" fill="#ededed" d="M 248.5,846.5 C 247.502,815.671 247.169,784.671 247.5,753.5C 250.16,751.503 253.16,750.003 256.5,749C 269.513,748.167 282.513,748.334 295.5,749.5C 293.914,752.578 292.58,755.744 291.5,759C 280.172,759.5 268.838,759.667 257.5,759.5C 257.5,770.167 257.5,780.833 257.5,791.5C 270.184,791.168 282.851,791.501 295.5,792.5C 293.914,795.578 292.58,798.744 291.5,802C 280.172,802.5 268.838,802.667 257.5,802.5C 257.833,816.183 257.499,829.85 256.5,843.5C 253.805,844.508 251.138,845.508 248.5,846.5 Z"/></g>
<g><path style="opacity:1" fill="#e8e8e8" d="M 330.5,748.5 C 339.874,748.357 343.374,752.69 341,761.5C 335.514,767.08 330.514,766.747 326,760.5C 324.474,755.239 325.974,751.239 330.5,748.5 Z"/></g>
<g><path style="opacity:1" fill="#95989b" d="M 419.5,749.5 C 419.56,748.957 419.893,748.624 420.5,748.5C 421.498,757.141 421.831,765.808 421.5,774.5C 420.833,766.167 420.167,757.833 419.5,749.5 Z"/></g>
<g><path style="opacity:1" fill="#e8e8e8" d="M 591.5,748.5 C 608.61,747.207 618.943,754.874 622.5,771.5C 622.167,772.5 621.833,773.5 621.5,774.5C 618.352,776.319 615.019,777.652 611.5,778.5C 612.903,767.403 608.07,761.07 597,759.5C 586.81,761.347 582.477,767.347 584,777.5C 585.061,780.562 586.894,783.062 589.5,785C 597.127,787.414 604.793,789.748 612.5,792C 629.74,802.843 633.573,817.343 624,835.5C 612.939,847.848 599.773,850.682 584.5,844C 573.989,837.872 569.322,828.872 570.5,817C 573.758,815.533 577.092,814.367 580.5,813.5C 578.881,825.097 583.548,832.931 594.5,837C 605.349,838.492 613.183,834.326 618,824.5C 619.858,815.743 617.358,808.576 610.5,803C 602.65,800.244 594.65,797.911 586.5,796C 574.509,788.709 570.343,778.209 574,764.5C 577.503,756.492 583.336,751.159 591.5,748.5 Z"/></g>
<g><path style="opacity:1" fill="#95989b" d="M 665.5,749.5 C 665.56,748.957 665.893,748.624 666.5,748.5C 667.498,757.141 667.831,765.808 667.5,774.5C 666.833,766.167 666.167,757.833 665.5,749.5 Z"/></g>
<g><path style="opacity:1" fill="#e9e9e9" d="M 419.5,749.5 C 420.167,757.833 420.833,766.167 421.5,774.5C 432.52,774.168 443.52,774.501 454.5,775.5C 452.786,778.299 451.453,781.299 450.5,784.5C 440.856,785.498 431.19,785.832 421.5,785.5C 421.333,799.171 421.5,812.837 422,826.5C 426.611,836.219 433.777,838.719 443.5,834C 447.26,830.648 449.593,826.481 450.5,821.5C 453.382,819.892 456.382,818.559 459.5,817.5C 460.661,838.505 450.661,848.338 429.5,847C 420,844.167 413.833,838 411,828.5C 410.5,814.171 410.333,799.837 410.5,785.5C 407.753,785.813 405.086,785.48 402.5,784.5C 403.833,781.5 405.167,778.5 406.5,775.5C 407.689,774.571 409.022,774.238 410.5,774.5C 410.169,767.137 410.503,759.803 411.5,752.5C 414.035,751.1 416.702,750.1 419.5,749.5 Z"/></g>
<g><path style="opacity:1" fill="#e9e9e9" d="M 665.5,749.5 C 666.167,757.833 666.833,766.167 667.5,774.5C 678.52,774.168 689.52,774.501 700.5,775.5C 698.786,778.299 697.453,781.299 696.5,784.5C 686.856,785.498 677.19,785.832 667.5,785.5C 667.333,799.171 667.5,812.837 668,826.5C 672.611,836.219 679.777,838.719 689.5,834C 693.26,830.648 695.593,826.481 696.5,821.5C 699.382,819.892 702.382,818.559 705.5,817.5C 706.661,838.505 696.661,848.338 675.5,847C 666,844.167 659.833,838 657,828.5C 656.5,814.171 656.333,799.837 656.5,785.5C 653.753,785.813 651.086,785.48 648.5,784.5C 649.833,781.5 651.167,778.5 652.5,775.5C 653.689,774.571 655.022,774.238 656.5,774.5C 656.169,767.137 656.503,759.803 657.5,752.5C 660.035,751.1 662.702,750.1 665.5,749.5 Z"/></g>
<g><path style="opacity:1" fill="#95989b" d="M 247.5,753.5 C 247.169,784.671 247.502,815.671 248.5,846.5C 248.44,847.043 248.107,847.376 247.5,847.5C 246.17,816.003 246.17,784.669 247.5,753.5 Z"/></g>
<g><path style="opacity:1" fill="#95989b" d="M 337.5,774.5 C 337.56,773.957 337.893,773.624 338.5,773.5C 339.499,789.82 339.833,806.153 339.5,822.5C 338.833,806.5 338.167,790.5 337.5,774.5 Z"/></g>
<g><path style="opacity:1" fill="#e7e7e8" d="M 757.5,773.5 C 773.146,772.002 783.312,778.668 788,793.5C 788.667,804.833 788.667,816.167 788,827.5C 783.331,842.489 773.165,848.989 757.5,847C 748,844.167 741.833,838 739,828.5C 738.058,815.43 738.391,802.43 740,789.5C 743.503,781.492 749.336,776.159 757.5,773.5 Z"/></g>
<g><path style="opacity:1" fill="#e7e7e7" d="M 839.5,773.5 C 858.381,772.094 868.714,780.76 870.5,799.5C 866.77,799.854 863.437,801.187 860.5,803.5C 859.731,787.859 852.065,782.359 837.5,787C 835.291,788.873 833.458,791.04 832,793.5C 831.667,809.833 831.333,826.167 831,842.5C 827.681,843.884 824.515,845.55 821.5,847.5C 820.334,829.176 820.167,810.842 821,792.5C 824.017,782.984 830.184,776.651 839.5,773.5 Z"/></g>
<g><path style="opacity:1" fill="#e8e8e8" d="M 921.5,773.5 C 943.426,772.921 953.426,783.421 951.5,805C 939.125,810.403 926.792,815.903 914.5,821.5C 913.399,828.62 916.399,833.453 923.5,836C 934.487,837.022 940.82,832.022 942.5,821C 945.684,819.496 948.851,817.996 952,816.5C 953.337,831.173 947.17,841.34 933.5,847C 918.243,849.125 908.076,842.958 903,828.5C 902.058,815.43 902.391,802.43 904,789.5C 907.503,781.492 913.336,776.159 921.5,773.5 Z"/></g>
<g><path style="opacity:1" fill="#eaeaea" d="M 337.5,774.5 C 338.167,790.5 338.833,806.5 339.5,822.5C 340.398,830.566 344.898,835.233 353,836.5C 361.894,835.441 367.061,830.441 368.5,821.5C 371.382,819.892 374.382,818.559 377.5,817.5C 379.604,832.238 373.604,842.071 359.5,847C 344.243,849.125 334.076,842.958 329,828.5C 328.167,811.49 328.334,794.49 329.5,777.5C 332.188,776.487 334.854,775.487 337.5,774.5 Z"/></g>
<g><path style="opacity:1" fill="#393e46" d="M 758.5,784.5 C 767.754,783.203 773.921,786.87 777,795.5C 777.931,806.573 777.597,817.573 776,828.5C 771.283,835.85 764.783,838.017 756.5,835C 753.538,832.713 751.371,829.88 750,826.5C 749.333,815.5 749.333,804.5 750,793.5C 752.362,789.973 755.196,786.973 758.5,784.5 Z"/></g>
<g><path style="opacity:1" fill="#3a3f47" d="M 922.5,784.5 C 933.06,783.157 939.227,787.49 941,797.5C 932.109,802.197 922.942,806.197 913.5,809.5C 913.334,804.156 913.501,798.823 914,793.5C 916.362,789.973 919.196,786.973 922.5,784.5 Z"/></g>
</svg>
